<svg xmlns="http://www.w3.org/2000/svg" width="268" height="251" viewBox="0 0 268 251" version="1.1">
  <rect width="100%" height="100%" fill="white"/>
	<path d="M 131 0.851 C 131 2.677, 133.231 7.977, 133.847 7.616 C 134.206 7.406, 135.440 7.591, 136.590 8.026 C 138.971 8.927, 139.236 13.687, 136.879 13.236 C 135.840 13.036, 135.881 13.283, 137.042 14.236 C 137.890 14.931, 139.609 17.180, 140.863 19.234 C 142.117 21.287, 145.698 25.278, 148.822 28.101 L 154.500 33.235 148.747 29.474 C 143.058 25.755, 139.387 24.907, 135.500 26.413 C 133.910 27.030, 133.808 26.967, 135 26.110 C 136.295 25.178, 136.259 25.029, 134.735 25.015 C 133.765 25.007, 132.045 23.538, 130.913 21.750 L 128.855 18.500 129.483 21.642 C 130.057 24.510, 129.730 25.041, 125.727 27.742 C 122.017 30.246, 117.797 31.832, 104.750 35.626 C 103.380 36.024, 102.995 35.523, 102.978 33.317 C 102.942 28.724, 99.471 22.295, 96.079 20.541 C 93.579 19.248, 93 18.325, 93 15.629 C 93 11.250, 90.393 9, 85.320 9 C 81.697 9, 79.394 9.932, 69.500 15.400 C 65.236 17.756, 55.992 25.124, 55.848 26.282 C 55.764 26.952, 55.640 28.175, 55.572 29 C 55.505 29.825, 54.673 30.438, 53.725 30.361 C 52.776 30.285, 52 30.677, 52 31.234 C 52 31.845, 51.449 31.788, 50.605 31.087 C 49.503 30.173, 49.241 30.282, 49.355 31.607 C 49.435 32.530, 48.937 33.483, 48.249 33.726 C 47.399 34.026, 47.221 33.580, 47.693 32.334 C 48.354 30.590, 48.302 30.585, 46.630 32.242 C 45.663 33.201, 45.174 34.473, 45.543 35.069 C 45.911 35.665, 45.265 37.036, 44.106 38.116 C 42.948 39.195, 42 39.610, 42 39.039 C 42 37.189, 40.074 37.934, 37.577 40.750 C 31.096 48.060, 29.816 49.406, 30.434 48.261 C 30.880 47.438, 30.586 47.222, 29.558 47.616 C 28.707 47.943, 28.260 48.612, 28.565 49.105 C 28.869 49.597, 28.615 50, 28 50 C 27.385 50, 27.162 50.453, 27.504 51.007 C 28.285 52.270, 24.153 58.213, 22.993 57.495 C 22.523 57.205, 21.882 57.381, 21.570 57.887 C 21.257 58.393, 22.688 60.234, 24.751 61.979 C 26.813 63.724, 27.825 64.824, 27 64.423 C 26.175 64.023, 24.647 62.977, 23.604 62.098 C 19.774 58.870, 22.644 62.708, 27.112 66.788 C 32.316 71.541, 34.597 72.416, 30.924 68.250 L 28.500 65.500 31.219 67.895 C 32.715 69.213, 33.722 70.641, 33.457 71.069 C 33.193 71.497, 34.894 73.366, 37.238 75.222 C 39.582 77.079, 44.875 81.261, 49 84.517 C 63.364 95.854, 80.758 112.086, 112.558 143.832 C 123.760 155.015, 133.364 163.893, 133.901 163.561 C 134.438 163.229, 135.242 163.610, 135.689 164.408 C 136.135 165.205, 136.838 165.890, 137.250 165.929 C 137.662 165.968, 137.887 166.189, 137.750 166.419 C 136.943 167.774, 153.832 181, 156.368 181 C 157.226 181, 163.953 185.883, 165.500 187.628 C 167.669 190.075, 178.178 196.008, 179.211 195.369 C 179.836 194.983, 180.027 195.148, 179.654 195.750 C 179.288 196.343, 181.015 197.991, 183.578 199.493 C 186.097 200.969, 187.932 202.401, 187.657 202.676 C 187.382 202.951, 184.984 201.938, 182.329 200.424 C 179.673 198.910, 177.950 198.135, 178.500 198.702 C 180.222 200.479, 189.408 205.469, 188.626 204.203 C 187.325 202.099, 189.167 202.898, 193.397 206.275 C 195.654 208.076, 199.247 210.439, 201.382 211.525 C 203.518 212.611, 206.503 214.720, 208.017 216.212 C 209.531 217.703, 211.384 219.053, 212.135 219.212 C 212.886 219.370, 213.786 219.894, 214.136 220.375 C 214.486 220.856, 215.930 221.250, 217.344 221.250 C 218.759 221.250, 220.723 222.159, 221.708 223.271 C 223.472 225.259, 223.460 225.270, 221 223.944 C 217.911 222.279, 215.803 221.873, 216.554 223.088 C 216.864 223.590, 217.766 224, 218.559 224 C 219.352 224, 220.876 224.876, 221.947 225.947 C 224.094 228.094, 230 231.400, 230 230.454 C 230 230.126, 230.729 230.586, 231.619 231.476 C 232.510 232.367, 233.455 232.879, 233.719 232.614 C 234.667 231.667, 232.952 230.198, 228.403 228.059 C 225.860 226.864, 224.033 225.634, 224.341 225.326 C 225.214 224.453, 238.529 231.610, 238.270 232.813 C 238.108 233.563, 238.916 233.577, 240.977 232.858 C 242.986 232.158, 245.589 232.161, 249.208 232.868 L 254.500 233.901 248.201 233.633 C 243.446 233.431, 242.342 233.621, 243.701 234.407 C 245.613 235.513, 246.146 235.677, 248.469 235.875 C 249.368 235.952, 249.706 236.603, 249.340 237.557 C 249.011 238.414, 248.154 238.889, 247.436 238.614 C 246.717 238.338, 245.988 238.533, 245.815 239.047 C 245.642 239.560, 242.781 240.042, 239.457 240.116 C 235.048 240.215, 232.277 239.672, 229.207 238.106 C 226.893 236.925, 225 236.203, 225 236.500 C 225 236.797, 223.088 236.041, 220.750 234.818 C 218.412 233.596, 216.162 232.687, 215.750 232.798 C 215.338 232.909, 215 232.550, 215 232 C 215 231.450, 214.663 231.071, 214.250 231.159 C 213.322 231.355, 210.008 230.171, 208 228.925 C 207.175 228.414, 205.516 227.568, 204.314 227.047 C 203.111 226.525, 198.836 224.130, 194.814 221.725 C 190.791 219.320, 185.250 216.074, 182.500 214.511 C 176.812 211.279, 155.984 197.725, 139.077 186.252 C 124.332 176.246, 119.056 173.079, 120.897 175.342 C 121.665 176.286, 127.290 180.392, 133.397 184.466 C 139.503 188.540, 147.065 194.326, 150.200 197.324 C 156.239 203.099, 161.831 206.991, 164.118 207.013 C 165.992 207.031, 179.779 216.096, 183.500 219.757 C 187.437 223.631, 193.093 226.935, 195.543 226.794 C 197.921 226.656, 204.613 230.548, 205.364 232.505 C 206.071 234.350, 215.772 239.259, 217.094 238.442 C 218.668 237.469, 223 238.877, 223 240.361 C 223 242.016, 230.411 244.322, 233.044 243.486 C 234.120 243.145, 235 243.264, 235 243.751 C 235 244.823, 241.871 244.380, 245.268 243.088 C 249.563 241.455, 258.731 235.158, 261 232.282 C 263.172 229.529, 263.299 226.019, 261.464 219.500 C 261.030 217.958, 261.714 217.063, 264.448 215.594 L 267.995 213.688 267.980 166.421 C 267.968 129.961, 267.683 119.023, 266.732 118.577 C 265.761 118.122, 265.765 117.876, 266.750 117.417 C 267.729 116.960, 268 104.172, 268 58.417 L 268 0 201.500 0 L 135 0 135 3 C 135 4.650, 134.550 6, 134 6 C 133.450 6, 133 5.587, 133 5.082 C 133 4.577, 132.699 3.378, 132.330 2.418 C 131.837 1.134, 132.010 0.888, 132.985 1.490 C 133.866 2.035, 134.070 1.923, 133.595 1.155 C 132.766 -0.188, 131 -0.394, 131 0.851 M 147.110 5.250 C 148.293 7.588, 150.051 10.625, 151.015 12 C 151.980 13.375, 154.018 16.750, 155.545 19.500 C 159.458 26.551, 166.548 33.707, 170.143 34.234 C 172.378 34.562, 172.955 34.326, 172.543 33.251 C 172.244 32.473, 172 31.423, 172 30.918 C 172 30.413, 171.315 30, 170.478 30 C 166.827 30, 154.428 15.711, 149.002 5.250 C 147.790 2.912, 146.384 1, 145.879 1 C 145.373 1, 145.927 2.912, 147.110 5.250 M 72.015 18.277 C 72.007 18.704, 73.825 22.529, 76.056 26.777 C 78.287 31.025, 79.804 33.375, 79.427 32 C 78.321 27.968, 72.053 16.363, 72.015 18.277 M 158.564 23.293 C 158.940 24.279, 159.499 24.834, 159.807 24.526 C 160.115 24.219, 159.808 23.412, 159.124 22.733 C 158.136 21.753, 158.022 21.868, 158.564 23.293 M 175 24 C 175 24.550, 175.477 25, 176.059 25 C 176.641 25, 176.840 24.550, 176.500 24 C 176.160 23.450, 175.684 23, 175.441 23 C 175.198 23, 175 23.450, 175 24 M 236 26 C 236 26.550, 236.450 27, 237 27 C 237.550 27, 238 26.550, 238 26 C 238 25.450, 237.550 25, 237 25 C 236.450 25, 236 25.450, 236 26 M 158.711 36.861 C 161.027 39.137, 163.406 41, 163.996 41 C 164.587 41, 163.591 39.751, 161.785 38.225 C 155.963 33.308, 154.383 32.606, 158.711 36.861 M 144.750 34.662 C 145.438 34.940, 146.563 34.940, 147.250 34.662 C 147.938 34.385, 147.375 34.158, 146 34.158 C 144.625 34.158, 144.063 34.385, 144.750 34.662 M 42.564 36.707 C 42.022 38.132, 42.136 38.247, 43.124 37.267 C 43.808 36.588, 44.115 35.781, 43.807 35.474 C 43.499 35.166, 42.940 35.721, 42.564 36.707 M 80.105 35.500 C 80.079 36.050, 80.959 39.650, 82.061 43.500 C 83.162 47.350, 84.553 53.538, 85.152 57.250 C 85.751 60.962, 86.590 64, 87.015 64 C 87.441 64, 87.398 62.313, 86.919 60.250 C 85.544 54.333, 86.033 51.968, 87.515 57.363 C 89.027 62.868, 96.173 74, 109.258 91.231 C 119.769 105.075, 122.712 107.500, 129 107.500 C 134.384 107.500, 137.876 105.207, 141.182 99.500 C 143.186 96.043, 143.489 94.210, 143.415 85.993 C 143.363 80.177, 142.817 75.527, 142.008 74.014 L 140.685 71.542 138.592 74.474 C 134.535 80.159, 132.172 82, 128.933 82 C 126.265 82, 124.284 80.490, 116.138 72.248 C 101.816 57.756, 88.455 42.732, 88.833 41.545 C 89.017 40.970, 88.825 40.842, 88.408 41.259 C 87.990 41.677, 86.602 41.036, 85.324 39.835 C 83.114 37.758, 82.996 37.745, 82.924 39.576 C 82.876 40.796, 82.355 40.219, 81.500 38 C 80.759 36.075, 80.131 34.950, 80.105 35.500 M 109.116 41.098 C 108.502 42.858, 108.032 44.794, 108.070 45.399 C 108.109 46.005, 108.786 44.739, 109.574 42.587 C 110.363 40.435, 110.833 38.500, 110.620 38.286 C 110.406 38.073, 109.729 39.338, 109.116 41.098 M 253.375 47.125 C 253.719 48.844, 254 53.344, 254 57.125 C 254 61.042, 254.430 64, 255 64 C 256.150 64, 256.280 58.974, 255.358 50.147 C 255.004 46.766, 254.273 44, 253.733 44 C 253.165 44, 253.014 45.321, 253.375 47.125 M 84.079 46.583 C 84.127 47.748, 84.364 47.985, 84.683 47.188 C 84.972 46.466, 84.936 45.603, 84.604 45.271 C 84.272 44.939, 84.036 45.529, 84.079 46.583 M 95.500 48 C 96.495 49.100, 97.535 50, 97.810 50 C 98.085 50, 97.495 49.100, 96.500 48 C 95.505 46.900, 94.465 46, 94.190 46 C 93.915 46, 94.505 46.900, 95.500 48 M 107.079 48.583 C 107.127 49.748, 107.364 49.985, 107.683 49.188 C 107.972 48.466, 107.936 47.603, 107.604 47.271 C 107.272 46.939, 107.036 47.529, 107.079 48.583 M 189.279 51.261 C 190.849 55.408, 201.105 69.938, 203.833 71.881 C 207.729 74.655, 208.839 74.555, 210.071 71.314 C 210.920 69.079, 210.585 67.611, 208.073 62.564 C 203.528 53.431, 201.190 50, 199.515 50 C 198.566 50, 198 50.934, 198 52.500 C 198 55.708, 196.727 55.653, 192.239 52.250 C 189.500 50.173, 188.776 49.931, 189.279 51.261 M 223.350 53.378 C 224.368 54.197, 224.904 55.347, 224.541 55.933 C 224.179 56.520, 224.359 57, 224.941 57 C 226.891 57, 226.027 54.083, 223.750 52.980 C 221.649 51.962, 221.622 51.988, 223.350 53.378 M 139.564 57.293 C 139.940 58.279, 140.499 58.834, 140.807 58.526 C 141.115 58.219, 140.808 57.412, 140.124 56.733 C 139.136 55.753, 139.022 55.868, 139.564 57.293 M 122.465 62.250 L 120.880 65.500 122.918 63 C 124.880 60.593, 125.520 59, 124.526 59 C 124.265 59, 123.338 60.462, 122.465 62.250 M 85.317 70.750 C 84.975 71.713, 83.980 73.400, 83.105 74.500 C 81.844 76.085, 82.049 76.030, 84.090 74.232 C 85.507 72.985, 86.667 71.298, 86.667 70.482 C 86.667 68.493, 86.075 68.610, 85.317 70.750 M 35 71.378 C 35 71.585, 35.788 72.373, 36.750 73.128 C 38.336 74.371, 38.371 74.336, 37.128 72.750 C 35.821 71.084, 35 70.555, 35 71.378 M 148.031 72.500 C 148.031 73.050, 148.467 74.175, 149 75 C 149.533 75.825, 149.969 76.050, 149.969 75.500 C 149.969 74.950, 149.533 73.825, 149 73 C 148.467 72.175, 148.031 71.950, 148.031 72.500 M 5 74.679 C 5 75.052, 5.542 76.857, 6.205 78.689 C 7.849 83.236, 48.149 122, 51.232 122 C 51.654 122, 52 122.644, 52 123.432 C 52 124.799, 56.964 129, 58.579 129 C 59.002 129, 58.292 127.875, 57 126.500 C 55.708 125.125, 55.110 124, 55.671 124 C 57.080 124, 60.346 127.751, 60.632 129.698 C 60.761 130.579, 61.283 131.570, 61.792 131.900 C 62.300 132.230, 65.143 134.602, 68.108 137.172 C 77.187 145.038, 82.436 148.980, 83.846 148.990 C 85.608 149.003, 91.280 153.053, 90.554 153.780 C 90.245 154.089, 88.916 153.331, 87.602 152.095 C 86.287 150.860, 84.956 150.262, 84.645 150.766 C 83.948 151.894, 89.707 156.299, 90.908 155.557 C 91.384 155.263, 92.343 155.708, 93.039 156.547 C 93.736 157.386, 97.274 159.702, 100.903 161.693 C 104.531 163.683, 108.850 166.286, 110.500 167.477 C 119.170 173.733, 117.227 171.460, 107.500 163.966 C 97.467 156.238, 76.457 138.984, 64.313 128.500 C 58.579 123.550, 49.750 115.949, 44.694 111.609 C 25.201 94.879, 10.003 80.740, 7.963 77.441 C 5.905 74.111, 5 73.267, 5 74.679 M 42 77.393 C 42 77.609, 42.698 78.054, 43.552 78.382 C 44.442 78.723, 44.843 78.555, 44.493 77.989 C 43.906 77.038, 42 76.583, 42 77.393 M 151.465 79.750 C 152.338 81.537, 153.265 83, 153.526 83 C 154.520 83, 153.880 81.407, 151.918 79 L 149.880 76.500 151.465 79.750 M 235 80.364 C 235 80.639, 236.350 81.825, 238 83 C 239.650 84.175, 241 84.911, 241 84.636 C 241 84.361, 239.650 83.175, 238 82 C 236.350 80.825, 235 80.089, 235 80.364 M 67.331 82.937 C 65.039 83.978, 62.829 84.530, 62.421 84.165 C 62.013 83.799, 61.933 83.950, 62.244 84.500 C 62.555 85.050, 65.777 85.480, 69.404 85.455 C 74.160 85.422, 76 85.771, 76 86.705 C 76 87.417, 76.787 88.032, 77.750 88.070 C 79.246 88.130, 79.210 88.265, 77.500 89 C 75.276 89.956, 75.291 89.969, 79.475 90.647 C 81.111 90.912, 82.926 91.524, 83.509 92.007 C 84.120 92.514, 85.187 92.494, 86.034 91.958 C 86.840 91.448, 87.050 91.021, 86.500 91.010 C 85.950 90.999, 84.150 89.835, 82.500 88.423 C 80.850 87.011, 80.063 86.139, 80.750 86.487 C 82.127 87.182, 82.382 86.102, 81.235 84.427 C 80.170 82.872, 77 81.880, 77 83.101 C 77 83.672, 75.987 83.985, 74.750 83.796 C 73.513 83.607, 72.612 82.901, 72.750 82.226 C 73.084 80.590, 72.262 80.698, 67.331 82.937 M 213 81.393 C 213 81.609, 213.698 82.054, 214.552 82.382 C 215.442 82.723, 215.843 82.555, 215.493 81.989 C 214.906 81.038, 213 80.583, 213 81.393 M 51.924 84.369 C 54.631 87.307, 55.165 87.594, 54.449 85.728 C 54.181 85.029, 52.958 83.845, 51.731 83.097 C 49.603 81.800, 49.612 81.859, 51.924 84.369 M 154.564 85.293 C 154.940 86.279, 155.499 86.834, 155.807 86.526 C 156.115 86.219, 155.808 85.412, 155.124 84.733 C 154.136 83.753, 154.022 83.868, 154.564 85.293 M 164.006 88.150 C 159.918 93.794, 160.130 97.165, 165.189 106.896 C 167.493 111.328, 169.572 114.762, 169.808 114.526 C 170.044 114.290, 168.612 111.142, 166.627 107.530 C 164.642 103.918, 162.728 99.150, 162.373 96.934 C 161.815 93.444, 162.157 92.310, 164.927 88.452 C 166.685 86.004, 167.874 84, 167.568 84 C 167.263 84, 165.660 85.868, 164.006 88.150 M 222.813 84.683 C 223.534 84.972, 224.397 84.936, 224.729 84.604 C 225.061 84.272, 224.471 84.036, 223.417 84.079 C 222.252 84.127, 222.015 84.364, 222.813 84.683 M 231.507 85.989 C 231.157 86.555, 231.558 86.723, 232.448 86.382 C 234.180 85.717, 234.497 85, 233.059 85 C 232.541 85, 231.843 85.445, 231.507 85.989 M 235.813 86.683 C 236.534 86.972, 237.397 86.936, 237.729 86.604 C 238.061 86.272, 237.471 86.036, 236.417 86.079 C 235.252 86.127, 235.015 86.364, 235.813 86.683 M 72 101.500 C 73.292 102.875, 74.574 104, 74.849 104 C 75.124 104, 74.292 102.875, 73 101.500 C 71.708 100.125, 70.426 99, 70.151 99 C 69.876 99, 70.708 100.125, 72 101.500 M 104 105.031 C 104 105.564, 104.675 106, 105.500 106 C 106.325 106, 107 105.823, 107 105.607 C 107 105.391, 106.325 104.955, 105.500 104.638 C 104.675 104.322, 104 104.499, 104 105.031 M 239 109 C 242.263 111.553, 243.810 111.553, 241.500 109 C 240.505 107.900, 238.972 107.010, 238.095 107.022 C 236.934 107.038, 237.180 107.576, 239 109 M 262.458 112.068 C 262.095 112.656, 261.118 112.876, 260.288 112.557 C 259.212 112.144, 258.953 112.436, 259.389 113.570 C 259.725 114.447, 260 115.407, 260 115.704 C 260 116.002, 260.635 115.718, 261.411 115.074 C 262.376 114.273, 263.027 114.235, 263.470 114.951 C 263.826 115.528, 264.627 116, 265.250 116 C 265.873 116, 265.553 115.393, 264.538 114.652 C 263.524 113.910, 263.015 112.785, 263.406 112.152 C 263.798 111.518, 263.893 111, 263.618 111 C 263.343 111, 262.821 111.481, 262.458 112.068 M 132 132.085 C 130.296 132.573, 131.543 132.832, 135.917 132.900 C 139.446 132.955, 142.130 132.796, 141.880 132.547 C 141.013 131.680, 134.483 131.374, 132 132.085 M 143 133.387 C 143 133.599, 144.326 133.968, 145.947 134.206 C 147.568 134.443, 148.667 134.270, 148.388 133.819 C 147.893 133.017, 143 132.625, 143 133.387 M 141.667 141.816 C 140.763 142.814, 139.773 145.177, 139.466 147.066 L 138.908 150.500 140.340 146.741 C 141.127 144.673, 142.328 142.310, 143.008 141.491 C 144.772 139.365, 143.635 139.640, 141.667 141.816 M 122.726 142.608 C 121.972 143.362, 124.156 147, 125.363 147 C 125.848 147, 125.627 146.256, 124.872 145.346 C 124.118 144.437, 123.650 143.499, 123.833 143.263 C 124.387 142.550, 123.380 141.954, 122.726 142.608 M 127.500 149 C 127.840 149.550, 128.316 150, 128.559 150 C 128.802 150, 129 149.550, 129 149 C 129 148.450, 128.523 148, 127.941 148 C 127.359 148, 127.160 148.450, 127.500 149 M 130 151.711 C 130 152.285, 130.787 153.373, 131.750 154.128 C 133.369 155.397, 133.390 155.350, 132.033 153.500 C 131.226 152.400, 130.439 151.313, 130.283 151.083 C 130.127 150.854, 130 151.137, 130 151.711 M 138.079 157.750 C 138.036 158.988, 137.592 160, 137.094 160 C 136.595 160, 136.453 161.012, 136.778 162.250 C 137.310 164.276, 137.455 164.167, 138.237 161.158 C 138.714 159.319, 138.892 157.294, 138.631 156.658 C 138.371 156.021, 138.122 156.512, 138.079 157.750 M 106 167.500 C 107.292 168.875, 108.574 170, 108.849 170 C 109.124 170, 108.292 168.875, 107 167.500 C 105.708 166.125, 104.426 165, 104.151 165 C 103.876 165, 104.708 166.125, 106 167.500 M 114.083 174.261 C 114.313 174.404, 115.625 175.417, 117 176.511 L 119.500 178.500 117.595 176.250 C 116.547 175.012, 115.235 174, 114.678 174 C 114.122 174, 113.854 174.117, 114.083 174.261 M 160 186.397 C 162.369 189.038, 166 191.593, 166 190.619 C 166 190.371, 164.088 188.693, 161.750 186.889 C 157.826 183.862, 157.692 183.824, 160 186.397 M 135 188.500 C 136.292 189.875, 137.574 191, 137.849 191 C 138.124 191, 137.292 189.875, 136 188.500 C 134.708 187.125, 133.426 186, 133.151 186 C 132.876 186, 133.708 187.125, 135 188.500 M 140 192.364 C 140 192.639, 141.350 193.825, 143 195 C 144.650 196.175, 146 196.911, 146 196.636 C 146 196.361, 144.650 195.175, 143 194 C 141.350 192.825, 140 192.089, 140 192.364 M 252 236.059 C 252 236.641, 252.450 236.840, 253 236.500 C 253.550 236.160, 254 235.684, 254 235.441 C 254 235.198, 253.550 235, 253 235 C 252.450 235, 252 235.477, 252 236.059" stroke="none" fill="#000000" fill-rule="evenodd"/>
</svg>